<?xml version="1.0" encoding="utf-8"?>
<!-- Generator: $$$/GeneralStr/196=Adobe Illustrator 27.6.0, SVG Export Plug-In . SVG Version: 6.00 Build 0)  -->
<svg version="1.1" id="Layer_1" xmlns="http://www.w3.org/2000/svg" xmlns:xlink="http://www.w3.org/1999/xlink" x="0px" y="0px"
	 viewBox="0 0 1920 1080" style="enable-background:new 0 0 1920 1080;" xml:space="preserve">
<style type="text/css">
	.st0{display:none;}
	.st1{display:inline;}
	.st2{fill:#1ECBD3;}
	.st3{fill:#020202;}
	.st4{fill:#030303;}
</style>
<g id="Layer_1_00000118379099512529204650000005003740919529563284_" class="st0">
	<g id="Image" class="st1">
		
			<image style="overflow:visible;enable-background:new    ;" width="906" height="1116" xlink:href="BB1277C3.png"  transform="matrix(0.75 0 0 0.75 638.8017 110.9828)">
		</image>
	</g>
	<g id="Dragon" class="st1">
		<path d="M1186.4,503.8c-1.2-11.4-4.2-39.5-13.9-57.7s-23.9-42.1-39.3-55.6s-32.2-26.5-47-32.1s-26.7-9.2-32.2-10
			c-5.6-0.9-8.2-1.6-1.6-1.7s18.7,0.9,26.2,2.1c7.4,1.2,25,4.7,38.3,12.3c13.3,7.6,32.4,18.9,42.1,29.8s9.7,10.9,9.7,10.9
			s-10.1-18.9-16.6-26.9s-25.3-26.7-36.1-34.5s-31.2-18.9-41.4-21.7c-10.2-2.8-23.6-5.9-33.5-6.1s-28.8,4.9-19.8-0.5
			c9-5.4,20.3-13.2,33.3-17.3s11.6-6.1,26.9-8.3s21.2-3.6,26.2-3.6s5,0,5,0s-6.2-3-19.9-3s-34,0.4-48.5,4
			c-14.6,3.6-44.2,13.9-52.3,18s-32.2,18.2-39.5,24.1s-14.7,10.4-26,22.2c-11.3,11.8-19.8,21.3-25.5,29.5s-11.6,18.2-11.6,18.2
			s5.9-17.9,19.9-36.1s25.7-35.5,45.6-51.7s29.6-24.8,45.9-33.1s34-16.3,37.4-17.5c3.5-1.2,3.5-1.2,3.5-1.2s-12.3,0-26,3
			c-13.7,3-43.5,13-53.9,18.9s-28.4,16.8-35.4,22.7s-18.5,15.3-25.3,22.7c-6.8,7.5-13.7,15.1-17.5,21.5s-7.5,12.7-7.5,12.7
			s0.7-5.7,0.9-14.6c0.2-8.8-0.5-16.8-2.2-26.2s-3.6-18-7.5-26.4c0,0,4.9,20.5-7.8,53.6c-12.7,33-19.8,43.4-30.7,58.5
			s-29.6,38.8-32.8,49.4s-7.2,19.2-7.5,34c-0.3,14.7,4,11.3-2.6,19.6c-6.6,8.3-16,17.9-17.9,19.2s-4.3,5-5.2,7s-3.3,4.1-8.3-3.5
			s-4.7-16.5-4.7-16.5s-4.2,11.3-3.1,18.7s0.3,16,5.5,21.8s8.2,5.2,10.8,11.8s6.8,15.6,16.5,22.5s14.7,9.9,21.7,10.8
			s6.9,0.9,6.9,0.9s-9.9-6.6-10.8-10.2c-0.9-3.6-2.6-8.3-1.4-11.1c1.2-2.8,1-4,5.2-0.3c4.2,3.6,8.5,6.6,12.5,8s5.9,1.7,5.9,1.7
			s-6.2-9.5-4.8-15.6s3.6-15.1,9.2-22.4c5.5-7.3,16.8-21.7,22.5-25.1c5.7-3.5,17.2-12.7,25-15.6c7.8-3,7.8-3,7.8-3
			s-3.3,9.4-6.6,15.6s-3.3,6.2-3.3,6.2l16-8c0,0-2.1,8-7.8,19.6s-10.6,22.7-13,26.9s-3.8,8.3-6.4,4.5s-2.6-4.8-2.6-4.8
			s-1.6,2.4-2.4,8.3s0,11.8-4.8,9.7s-7.6-1.9-10.9-7.3c-3.3-5.4-3.3-5.4-3.3-5.4s-1.9,10.8,0.5,18.5s5.2,16,14.7,24.3
			s17,11.6,24.4,13.3c7.5,1.7,14.4,2.6,14.4,2.6s-9.4-6.8-10.4-14.6s-1-14.6,2.6-19.1s12.7-13,19.9-12s8.3,0.7,11.4,1.9
			c3.1,1.2,5.2,2.1,5.2,2.1s-6.4-5.8-7.6-8.9s-5.5-12.5,1.6-21.1s33.7-33.7,33.7-33.7s14.4-12.9,16.5-18.3s5.3-12.9,4.8-20.3
			s-1.6-16.4,0.1-22.2s4-11.4,7.6-14.9s8.9-7.5,14.2-9.1s9.6-3.7,15-3.9c5.4-0.2,7.7-0.4,7.7-0.4s-8.2-2.4-14.2-2.8
			c-5.6-0.4-11.6-0.1-16,0.6c-5.2,0.9-18.2,6.5-21.3,8.8c-2.4,1.8-6.3,5.6-6.8,12.7s-0.3,11.5-3.5,19.9c-3.1,8.5-7.5,20.1-10.9,25.6
			s-6.2,9.1-6.2,9.1s9.6-14,11-24.7s2.7-9,2.2-17.8s-1.2-17.9-1.2-17.9s-5.7,2.2-11.3,1.8s-14.3-0.6-19.4-5.2s-9.9-8.8-11.3-15.2
			s-1-14.2-1-14.2s1.3,9.8,4.7,14.2s7.8,9.1,14.2,10.5s15.7,1.3,20.8,0.3s16.2-5.3,21.6-7s12.6-3.9,21.3-3.9s14.4,0,19.2,1.3
			s7.8,1.8,10.8,3s3.8,1.7,3.8,1.7s-10.3,0.5-14.7,1.2c-4.4,0.6-16,4.4-22.2,9.4c-6.2,4.9-10.5,10.3-11.7,14s-2.2,9.9-2,12.7
			c0.2,2.9,0.3,2.2,1.2,3.5c0.9,1.2,8,9.7,9.2,13.2s6.7,17.9,5.5,29.9s-4.2,23.2-7.8,33.6s-4.7,13.7-4.7,13.7s4.8-10.2,10.9-18.2
			c6.1-8,12-16.1,20.3-21.3s14-8.2,18.7-9c4.7-0.9,5.2-0.5,0,8.7s-23.8,34.3-31.4,41.8S943.7,611,943.7,611s-18.4,17.3-25.3,28.6
			s-6.9,11.3-6.9,11.3s8.2-10.4,17.9-15.8c9.7-5.4,15.5-9.5,25.7-10.6s14-0.3,17.1,0.5s3.5,1.4-2.1,4.7s-25.8,16-33.1,19.6
			s-26.7,14.9-33.1,19.1c-6.4,4.2-21,11.8-28.6,24.8s-7.6,13-7.6,13s13.5-12.1,18.4-13.9c4.8-1.7,13-4.7,18.2-3.6s9.2,1.7,4.5,4.2
			s-22,13.5-30.9,20.5c-8.8,6.9-24.7,21.1-30.2,29.6c-3.4,5.3-15.3,25.1-12.6,45.1c2.8,19.9,5.4,23.4,5.4,23.4s-1-15.1,1.2-23.6
			s13.5-34.8,20.5-40.6s16.3-16.8,27.2-23.2s76.8-43.7,76.8-43.7l25.7-16c0,0-10.8,1.4-17.9,1.4s-14.7,0-14.7,0l17.7-12.7
			c0,0,0.9-1.4,6.1-2.1s32.4-8.3,39.2-12.7c6.8-4.3,17.3-10.9,17.3-10.9s-9.7,14.7-13.3,19.2c-3.6,4.5-13.3,17.7-28.8,30.3
			s-45.6,35-72.3,50.5s-44.7,29.8-53.7,40.2s-16.5,22.7-17.3,26.2c-0.9,3.5-1,5.5-1,5.5s6.8-12,11.3-16.5s21.7-19.8,40.7-27.9
			s15.4-7.8,38.5-17.2s61.9-24.6,83-40.6c21.2-16,38.1-29.3,49.1-43.5c10.9-14.2,10.9-14.2,10.9-14.2s-0.9,6.2-6.8,21.7
			s-17.9,42.1-31.2,57.5c-13.3,15.4-30.3,33.6-30.3,33.6s18.5-10.6,25.5-17c6.9-6.4,35.5-33.1,46.6-51s27.9-45.1,32.6-62.4
			c4.7-17.3,12.5-41.1,13.3-56.2c0.9-15.1,0-28.8,0-28.8s5.2,14.6,5.2,29.6s0.7,26-1.7,38.1c-2.4,12.1-6.2,27.6-8.8,33.5
			c-2.6,5.9-2.6,5.9-2.6,5.9s7.1-8.7,13.3-20.8s19.7-40.9,20.7-61.4s0.9-57.5-6.1-75.4c-6.9-17.9-12.1-31-15.3-36.1
			s-5.9-9.7-5.9-9.7s7.6,3.3,16.5,15.6s16.8,21.5,22.7,36.9s9.4,23.4,10.6,30s1.2,6.6,1.2,6.6S1187.6,515.2,1186.4,503.8z
			 M791.2,546.2c-1,1.4-5.5,4.2-8.1,4.5s-3.8,2.3-4.7,6.5s-1.2,3-2.1-1c-0.9-4,0.9-6.7,2.1-7.9c3-3,6-3.7,6-3.7
			c1.6-0.4,4.8-2.1,7.4-3C794.5,540.8,792.3,544.8,791.2,546.2z M804.4,469.1c1.7-9.4,6.4-16.5,13.7-29s27.2-33,32.6-39
			c5.5-6,28.2-24.4,28.2-24.4c0.3,1.4-3.6,4.4-8.3,8.2s-6.8,6.8-19.4,19.2c-12.6,12.5-20.4,26.3-28.1,38s-11.2,22.8-12.7,28.5
			s-1.6,15.1-1.3,18.2s5.7,8.7,5.7,8.7s0,0-3,0s-3.2-0.1-7.4-3.2C800.2,491.1,802.7,478.5,804.4,469.1z M824.5,496.5l-14.4,11.3
			l-9.7,8l4.5-5c0,0,13.7-11.8,18-16.6s4-8.8,4.3-16c0.3-7.1,5.7-14.2,10-16.6s10.9-7.5,14.4-10.6s11.3-18.9,11.3-18.9
			c-0.5,6.1-1.9,8.5-3.8,12.7c-1.9,4.2-3.5,7.5-3.5,12.3c0,4.9-1.4,10.9-3.5,16.9s-7.6,10.8-10.9,12c-3.3,1.2-8.7,2.8-9.6,4.3
			C830.7,491.8,824.5,496.5,824.5,496.5z M876.1,473.3c-1.4,4.9-5.5,11.4-9.2,14.9s-13.9,9.2-19.2,10.9s-11.2,4-14.2,6.6
			s-1.7,0-1.7,0s6.1-3.3,10.9-5.9s14.9-8.7,21.3-15.1c6.4-6.4,9-18.7,9-18.7s0,0,1.6-9.4s1.9-14.2,1.9-14.2s0,0,2.1,7.6
			S877.5,468.4,876.1,473.3z M906.5,517.3c3-5.4,7.1-22.7,7.1-22.7c3-17.7-3.6-28.4-9.7-32.9s3.5-0.7,9.9,3.6
			c6.4,4.3,6.9,15.8,6.9,25s-6.4,20.8-13.7,32.2s-19.8,32.9-22.7,38c-3,5-16.5,36.4-16.5,36.4s7.6-21,10.2-26.5
			c2.6-5.5,9.5-18.7,12.5-23.8S903.5,522.7,906.5,517.3z M928.3,386.9c-3.5,5.2-5.7,18.5-3.8,24.4s4.8,5.9,8.7,3.6
			c3.8-2.2,4-10.8,4-10.8s0.3,3,0.5,8.3c0.2,5.4-4.5,7.5-9.4,7.8c-4.9,0.4-5.9-3.5-9.4-10.8s1.2-17,4.3-24.8s15.6-19.6,15.6-19.6
			c7.3-8,24.8-18.2,31.9-22.2c7.1-4,18.4-8,18.4-8s-11.1,5.5-18.4,9.5c-7.3,4-20.6,15.8-26.9,21.7
			C937.7,372.2,931.8,381.7,928.3,386.9z M993.3,637.3c-7.5,2.9-1.6-0.5,2.9-5.2s5.7-6.8,11.4-12.2c5.7-5.5,20.3-28.1,20.3-28.1
			c4.9-7.5,8.6-7.8,15.3-13.8c6.8-6,16.1-14.3,23.4-22.6s15.9-23.7,15.9-23.7s-0.3,2.6-1,9.6s-3.6,19.5-7.8,31.2
			s-16.6,23.7-31.5,36.7S1000.8,634.5,993.3,637.3z M1057,503.4c8.3-13.5,12.2-46.5,12.2-46.5c9.6,16.1,9.9,30.2,10.7,36.7
			c0.8,6.5-7,26-15.6,41.6c-8.6,15.6-25.2,33-25.2,33s4-10,6.2-19.5c2.4-10,4.7-19.2,5.7-27.6S1048.7,517,1057,503.4z M1080.2,595
			c-10.9,21.1-36.4,45.8-36.4,45.8s17.2-21.3,28.3-40s15.6-35.1,21.1-60.1s-4.7-65.5-13.3-84.5s-35.4-41.1-41.6-46
			s-25.2-11.4-25.2-11.4s14,9.6,22.6,17.4c8.6,7.8,15.3,24.2,17.7,40.6c2.3,16.4-3.4,30.4-3.4,30.4s-0.3-2.6-1.3-9.9
			s-5.2-18.7-11.4-32.2s-19-24.7-31.7-34.8c-12.7-10.1-31.5-16.1-38.2-17.7c-6.8-1.6-22.1-1.6-22.1-1.6l9.6-13.3
			c5.2-5.7,2.8-5.5,17.7-6s33.3,2.3,64.2,13.3c30.9,10.9,44.5,34.6,59,58c14.6,23.4,12.2,48.9,12.5,73.9
			C1108.5,541.7,1091.1,573.9,1080.2,595z"/>
	</g>
	<g id="Image2" class="st1">
		
			<image style="overflow:visible;enable-background:new    ;" width="909" height="882" xlink:href="BB1277C1.jpeg"  transform="matrix(0.9989 0 0 0.9989 483.5314 50.8439)">
		</image>
	</g>
	<g id="fogaskerek" class="st1">
		<path d="M1487.7,619.7l0.6-162.6l-117.2-13.6c-12-44.7-31.1-86.4-56.2-123.9l74.7-97.1l-114.8-115.2L1174,187.5
			c-36.1-20.8-75.6-36.3-117.5-45.6l-16.9-128.3H876.9l-14.7,130.6c-39.8,9.9-77.3,25.4-111.7,45.8L646,111.8L532.4,228.2l78.3,95.7
			c-23.8,36.7-42.1,77.4-53.6,120.8l-123.8,16.5l0.1,162.6l118,13.2c9.5,46.9,26.8,91,50.5,130.8l-70.5,90.3l114,116l87.9-68.9
			c40.4,26.6,85.7,46.4,134.2,57.8l13.9,105.4l162.6,0.1l11.8-104.3c50-11.1,96.7-31.1,138.2-58.2l83.2,63.5L1392,854.3l-67.1-83.8
			c25-41.4,43.1-87.5,52.7-136.7L1487.7,619.7z M960.8,841c-165.7,0-300-134.3-300-300s134.3-300,300-300s300,134.3,300,300
			S1126.5,841,960.8,841z"/>
	</g>
</g>
<g id="Laptopimage" class="st0">
	
		<image style="display:inline;overflow:visible;enable-background:new    ;" width="512" height="512" xlink:href="laptop.png"  transform="matrix(2.0645 0 0 2.0645 470.2076 -37.0463)">
	</image>
</g>
<g id="Laptopikon" class="st0">
	<g id="Dragon_00000067952478161751066970000018175495131204973440_" class="st1">
		<path class="st2" d="M1135.8,469c-0.7-6.5-2.4-22.4-7.9-32.7c-5.5-10.3-13.6-23.9-22.3-31.5c-8.7-7.7-18.3-15-26.6-18.2
			s-15.1-5.2-18.3-5.7c-3.1-0.5-4.6-0.9-0.9-1s10.6,0.5,14.8,1.2c4.2,0.7,14.1,2.7,21.7,7s18.4,10.7,23.9,16.9
			c5.5,6.2,5.5,6.2,5.5,6.2s-5.7-10.7-9.4-15.2s-14.3-15.1-20.4-19.6s-17.7-10.7-23.5-12.3c-5.8-1.6-13.4-3.3-19-3.4
			s-16.3,2.7-11.2-0.3c5.1-3,11.5-7.5,18.9-9.8s6.6-3.4,15.2-4.7s12-2.1,14.8-2.1c2.9,0,2.9,0,2.9,0s-3.5-1.7-11.3-1.7
			s-19.3,0.2-27.5,2.3c-8.3,2.1-25.1,7.9-29.7,10.2c-4.6,2.4-18.3,10.3-22.4,13.7c-4.1,3.3-8.4,5.9-14.7,12.6
			c-6.4,6.7-11.2,12.1-14.4,16.7s-6.6,10.3-6.6,10.3s3.3-10.1,11.3-20.4s14.6-20.1,25.9-29.3s16.8-14.1,26-18.8
			c9.2-4.7,19.3-9.2,21.2-9.9c2-0.7,2-0.7,2-0.7s-7,0-14.7,1.7c-7.8,1.7-24.7,7.4-30.6,10.7c-5.9,3.3-16.1,9.5-20.1,12.9
			c-3.9,3.3-10.5,8.7-14.3,12.9c-3.8,4.2-7.8,8.5-9.9,12.2c-2.2,3.6-4.2,7.2-4.2,7.2s0.4-3.2,0.5-8.3c0.1-5-0.3-9.5-1.3-14.8
			s-2.1-10.2-4.3-15c0,0,2.8,11.6-4.4,30.4c-7.2,18.7-11.2,24.6-17.4,33.2c-6.2,8.5-16.8,22-18.6,28s-4.1,10.9-4.3,19.3
			s2.3,6.4-1.5,11.1c-3.7,4.7-9,10.1-10.1,10.9s-2.5,2.8-2.9,4s-1.9,2.3-4.7-2c-2.9-4.3-2.7-9.3-2.7-9.3s-2.4,6.4-1.8,10.6
			s0.2,9,3.1,12.4c2.9,3.3,4.6,2.9,6.1,6.7c1.5,3.7,3.8,8.8,9.3,12.8c5.5,3.9,8.4,5.6,12.3,6.1c3.9,0.5,3.9,0.5,3.9,0.5
			s-5.6-3.7-6.1-5.8s-1.5-4.7-0.8-6.3c0.7-1.6,0.6-2.3,2.9-0.2s4.8,3.7,7.1,4.5s3.3,1,3.3,1s-3.5-5.4-2.7-8.8s2.1-8.5,5.2-12.7
			c3.1-4.1,9.5-12.3,12.8-14.3c3.2-2,9.7-7.2,14.1-8.8c4.4-1.7,4.4-1.7,4.4-1.7s-1.9,5.3-3.7,8.8c-1.9,3.5-1.9,3.5-1.9,3.5l9-4.5
			c0,0-1.2,4.5-4.4,11.1s-6,12.9-7.4,15.2c-1.4,2.4-2.2,4.7-3.6,2.6s-1.5-2.7-1.5-2.7s-0.9,1.4-1.4,4.7c-0.5,3.3,0,6.7-2.7,5.5
			s-4.3-1.1-6.2-4.1c-1.9-3-1.9-3-1.9-3s-1.1,6.1,0.3,10.5s2.9,9,8.4,13.8c5.4,4.7,9.6,6.6,13.9,7.6c4.2,1,8.2,1.5,8.2,1.5
			s-5.3-3.8-5.9-8.3c-0.6-4.4-0.6-8.3,1.5-10.8c2.1-2.6,7.2-7.4,11.3-6.8s4.7,0.4,6.5,1.1c1.8,0.7,3,1.2,3,1.2s-3.7-3.3-4.3-5.1
			c-0.7-1.7-3.1-7.1,0.9-11.9c4-4.9,19.1-19.1,19.1-19.1s8.2-7.3,9.4-10.4s3-7.3,2.7-11.5s-0.9-9.3,0-12.6c1-3.3,2.2-6.5,4.3-8.4
			c2.1-2,5-4.2,8-5.2s5.5-2.1,8.5-2.2c3.1-0.1,4.4-0.2,4.4-0.2s-4.7-1.3-8-1.6c-3.2-0.2-6.6-0.1-9.1,0.4c-3,0.5-10.3,3.7-12.1,5
			c-1.3,1-3.6,3.2-3.9,7.2c-0.3,4-0.2,6.5-2,11.3s-4.3,11.4-6.2,14.5s-3.5,5.2-3.5,5.2s5.5-8,6.3-14s1.5-5.1,1.3-10.1
			c-0.3-5-0.7-10.2-0.7-10.2s-3.2,1.3-6.4,1c-3.2-0.2-8.1-0.4-11-2.9c-2.9-2.6-5.6-5-6.4-8.6c-0.8-3.6-0.6-8-0.6-8s0.7,5.5,2.7,8
			c1.9,2.5,4.4,5.2,8,6s8.9,0.7,11.8,0.1c2.9-0.6,9.2-3,12.2-4s7.1-2.2,12.1-2.2c5,0,8.2,0,10.9,0.7s4.4,1,6.1,1.7s2.1,1,2.1,1
			s-5.8,0.3-8.3,0.7s-9.1,2.5-12.6,5.3s-5.9,5.9-6.6,8c-0.7,2.1-1.3,5.6-1.1,7.2c0.1,1.6,0.2,1.3,0.7,2s4.5,5.5,5.2,7.5
			s3.8,10.1,3.1,16.9s-2.4,13.2-4.4,19.1c-2.1,5.9-2.7,7.8-2.7,7.8s2.7-5.8,6.2-10.3c3.4-4.5,6.8-9.1,11.5-12.1
			c4.7-2.9,8-4.6,10.6-5.1c2.7-0.5,2.9-0.3,0,4.9c-2.9,5.2-13.5,19.5-17.8,23.7S998,530.5,998,530.5s-10.4,9.8-14.3,16.2
			c-3.9,6.4-3.9,6.4-3.9,6.4s4.6-5.9,10.1-8.9s8.8-5.4,14.6-6s7.9-0.2,9.7,0.3s2,0.8-1.2,2.7c-3.1,1.9-14.6,9-18.8,11.1
			c-4.1,2.1-15.1,8.5-18.8,10.8s-11.9,6.7-16.2,14.1c-4.3,7.4-4.3,7.4-4.3,7.4s7.7-6.9,10.4-7.9s7.4-2.7,10.3-2.1
			c2.9,0.6,5.2,1,2.6,2.4c-2.7,1.4-12.5,7.7-17.5,11.6c-5,3.9-14,11.9-17.1,16.8c-1.9,3-8.7,14.3-7.1,25.5c1.6,11.3,3,13.3,3,13.3
			s-0.6-8.5,0.7-13.4c1.3-4.8,7.7-19.8,11.6-23c3.9-3.2,9.2-9.5,15.4-13.2s43.5-24.8,43.5-24.8l14.5-9c0,0-6.1,0.8-10.1,0.8
			s-8.4,0-8.4,0l10-7.2c0,0,0.5-0.8,3.4-1.2s18.4-4.7,22.2-7.2c3.8-2.5,9.8-6.2,9.8-6.2s-5.5,8.4-7.6,10.9
			c-2.1,2.6-7.6,10-16.3,17.2c-8.7,7.2-25.8,19.9-41,28.6c-15.1,8.7-25.4,16.9-30.5,22.8s-9.3,12.9-9.8,14.8s-0.6,3.1-0.6,3.1
			s3.8-6.8,6.4-9.3c2.6-2.6,12.3-11.2,23.1-15.8s8.7-4.4,21.8-9.7s35.1-14,47.1-23s21.6-16.6,27.8-24.7c6.2-8.1,6.2-8.1,6.2-8.1
			s-0.5,3.5-3.8,12.3c-3.3,8.7-10.1,23.9-17.7,32.6c-7.6,8.7-17.2,19.1-17.2,19.1s10.5-6,14.4-9.6s20.1-18.8,26.4-28.9
			c6.3-10.1,15.8-25.5,18.5-35.4s7.1-23.3,7.6-31.8s0-16.3,0-16.3s2.9,8.3,2.9,16.8s0.4,14.7-1,21.6c-1.4,6.9-3.5,15.6-5,19
			c-1.5,3.3-1.5,3.3-1.5,3.3s4-4.9,7.5-11.8c3.5-6.9,11.2-23.2,11.7-34.8c0.6-11.6,0.5-32.6-3.4-42.7s-6.9-17.6-8.7-20.4
			c-1.8-2.9-3.3-5.5-3.3-5.5s4.3,1.9,9.3,8.8c5,7,9.5,12.2,12.9,20.9c3.3,8.7,5.3,13.3,6,17s0.7,3.7,0.7,3.7
			S1136.5,475.4,1135.8,469z M911.8,493c-0.6,0.8-3.1,2.4-4.6,2.6s-2.1,1.3-2.7,3.7c-0.5,2.4-0.7,1.7-1.2-0.6s0.5-3.8,1.2-4.5
			c1.7-1.7,3.4-2.1,3.4-2.1c0.9-0.2,2.7-1.2,4.2-1.7C913.6,489.9,912.4,492.2,911.8,493z M919.2,449.3c1-5.3,3.6-9.4,7.7-16.4
			s15.4-18.7,18.5-22.1s16-13.9,16-13.9c0.1,0.8-2.1,2.5-4.7,4.6c-2.7,2.1-3.8,3.8-11,10.9c-7.1,7.1-11.6,14.9-15.9,21.5
			c-4.3,6.6-6.3,12.9-7.2,16.1s-0.9,8.5-0.7,10.3c0.1,1.8,3.2,4.9,3.2,4.9s0,0-1.7,0s-1.8-0.1-4.2-1.8
			C916.9,461.8,918.3,454.6,919.2,449.3z M930.6,464.8l-8.2,6.4l-5.5,4.5l2.6-2.9c0,0,7.8-6.7,10.2-9.4c2.5-2.7,2.3-5,2.5-9
			s3.2-8.1,5.7-9.4s6.2-4.2,8.2-6s6.4-10.7,6.4-10.7c-0.3,3.4-1.1,4.8-2.2,7.2c-1.1,2.4-2,4.2-2,7c0,2.7-0.8,6.2-2,9.6
			s-4.3,6.1-6.2,6.8c-1.9,0.7-4.9,1.6-5.5,2.5C934.1,462.2,930.6,464.8,930.6,464.8z M959.9,451.7c-0.8,2.7-3.1,6.5-5.2,8.5
			c-2.1,2-7.9,5.2-10.9,6.2s-6.3,2.3-8.1,3.7c-1.7,1.5-1,0-1,0s3.4-1.9,6.2-3.3c2.7-1.5,8.5-4.9,12.1-8.5s5.1-10.6,5.1-10.6
			s0,0,0.9-5.3s1.1-8.1,1.1-8.1s0,0,1.2,4.3C962.4,442.8,960.7,448.9,959.9,451.7z M977.1,476.6c1.7-3,4-12.9,4-12.9
			c1.7-10-2.1-16.1-5.5-18.7s2-0.4,5.6,2.1s3.9,8.9,3.9,14.1s-3.6,11.8-7.8,18.3c-4.1,6.5-11.2,18.7-12.9,21.5
			c-1.7,2.9-9.3,20.6-9.3,20.6s4.3-11.9,5.8-15s5.4-10.6,7.1-13.5C969.7,490.4,975.4,479.7,977.1,476.6z M989.5,402.7
			c-2,2.9-3.2,10.5-2.2,13.9c1.1,3.3,2.7,3.3,4.9,2.1c2.2-1.3,2.3-6.1,2.3-6.1s0.2,1.7,0.3,4.7s-2.6,4.2-5.3,4.4s-3.3-2-5.3-6.1
			s0.7-9.6,2.5-14.1c1.8-4.4,8.8-11.1,8.8-11.1c4.1-4.5,14.1-10.3,18.1-12.6c4-2.3,10.4-4.5,10.4-4.5s-6.3,3.1-10.4,5.4
			c-4.1,2.3-11.7,8.9-15.2,12.3C994.8,394.4,991.4,399.8,989.5,402.7z M1026.3,544.7c-4.3,1.6-0.9-0.3,1.6-2.9
			c2.5-2.7,3.2-3.8,6.5-6.9c3.2-3.1,11.5-15.9,11.5-15.9c2.8-4.3,4.9-4.4,8.7-7.8c3.8-3.4,9.1-8.1,13.3-12.8c4.1-4.7,9-13.4,9-13.4
			s-0.1,1.5-0.6,5.5c-0.4,4-2.1,11.1-4.4,17.7c-2.4,6.6-9.4,13.4-17.8,20.8C1045.6,536.1,1030.6,543.1,1026.3,544.7z M1062.4,468.8
			c4.7-7.7,6.9-26.4,6.9-26.4c5.5,9.1,5.6,17.1,6,20.8c0.4,3.7-4,14.7-8.8,23.6c-4.9,8.8-14.3,18.7-14.3,18.7s2.3-5.7,3.5-11.1
			c1.3-5.7,2.7-10.9,3.2-15.6C1059.6,474.1,1057.7,476.4,1062.4,468.8z M1075.6,520.7c-6.2,11.9-20.6,25.9-20.6,25.9
			s9.7-12.1,16.1-22.7c6.3-10.6,8.8-19.9,11.9-34.1c3.1-14.1-2.7-37.1-7.5-47.9c-4.9-10.8-20.1-23.3-23.6-26.1
			c-3.5-2.8-14.3-6.5-14.3-6.5s8,5.5,12.8,9.9c4.9,4.4,8.7,13.7,10,23s-1.9,17.2-1.9,17.2s-0.1-1.5-0.7-5.6s-2.9-10.6-6.5-18.3
			c-3.5-7.7-10.8-14-18-19.8c-7.2-5.7-17.8-9.1-21.7-10s-12.5-0.9-12.5-0.9l5.5-7.5c3-3.2,1.6-3.1,10-3.4s18.9,1.3,36.4,7.5
			s25.2,19.6,33.5,32.9s6.9,27.7,7.1,41.9C1091.6,490.4,1081.8,508.7,1075.6,520.7z"/>
	</g>
	<g class="st1">
		<path d="M1184.3,71.4l-84.8,84.8l-51.9-51.9C1047.6,104.3,1106.8,52.8,1184.3,71.4z"/>
		<path d="M1223.7,111.7c0,0-98.2,92.1-95.2,95.2c-2.8-2.8-89.9-89.9-89.9-89.9s-21.7,23.2-15.5,54.2c6.2,31,8.5,41.8,8.5,41.8
			l-253,232.3c0,0-20.9,29.4,0,52.6c20.9,23.2,43.4,39.5,66.6,20.9c23.2-18.6,236.9-253.2,236.9-253.2l82.1,1.5
			C1164.1,267.2,1236.9,214,1223.7,111.7z M835.5,491.5c-17.7,0-32.1-14.4-32.1-32.1s14.4-32.1,32.1-32.1s32.1,14.4,32.1,32.1
			S853.2,491.5,835.5,491.5z"/>
		<path d="M973.7,247.1l-23.2,23.2l-87.1-87.1c0,0-8.1-10.5-19-12c-10.8-1.5-16.3-2.9-22.5-12.2s-53-68.5-53-68.5l23.6-23.6l73,52.6
			c0,0,6.4,5,7.9,15.5s2.7,15.7,10.5,23.2C891.6,165.8,973.7,247.1,973.7,247.1z"/>
		<polygon points="1058.1,308.6 1011.2,355.5 1142.5,502.6 1203,442 		"/>
		<polygon points="1207.1,445.7 1148.1,504.7 1181.5,526.2 1228,479.7 		"/>
	</g>
	<path class="st1" d="M921.8,266.5H681c0,0-20.9,0-20.9,29.4s0,367,0,367s0,22.5,21.7,22.5s637.2,0,637.2,0s20.1-1.5,20.1-21.7
		s0-377.8,0-377.8s1.5-19.4-25.5-19.4c-27.1,0-112.3,0-112.3,0l-39.5,45.7h134.7v326.7H705v-329h168.8L921.8,266.5z"/>
	<path class="st1" d="M1519.5,861.8c-28.6-24-175-167.2-175-167.2s-7-4.1-20.1-4.1s-650.3,1-650.3,1s-10.8-5.4-25.5,9.3
		S470.3,873.4,470.3,873.4s-1.3,40.3,19.6,40.3s1018.8,0,1018.8,0S1548.1,885.8,1519.5,861.8z M1316.9,706.4l17,18.6l-46.7,0.1
		l-14.2-18.6L1316.9,706.4L1316.9,706.4z M1242.3,706.2l11.9,18.6l-45.8,0.1l-9.2-18.6L1242.3,706.2L1242.3,706.2z M1167.7,706.2
		l10.3,18.6l-47.9,0.1l-4.8-18.6L1167.7,706.2L1167.7,706.2z M1119.1,797.3h-56.7l-1.7-23.7h53.4L1119.1,797.3z M1108.8,760.1h-50.2
		l-2.9-21.9h47.5L1108.8,760.1z M1094.5,706.4l4.9,18.6l-45.7,0.1l-3.1-18.6L1094.5,706.4L1094.5,706.4z M977.3,706.2h43.1l1.3,18.6
		H974L977.3,706.2z M975.2,738.2h46.5l1,21.9h-50.2L975.2,738.2z M972.5,773.5h52.8l0.6,23.7h-56.7L972.5,773.5z M902.8,706.2h43
		l-4.1,18.6h-45.3L902.8,706.2z M894.7,738.2h46.2l-2.3,21.9h-50.2L894.7,738.2z M885.2,773.5H936l-2.3,23.7H877L885.2,773.5z
		 M829.9,706.6h41.3l-6.8,18.2H819L829.9,706.6z M813.9,738.2h46.5l-8.5,21.9h-50.2L813.9,738.2z M847.2,773.5l-8.5,23.7h-55.5
		l14.6-23.7H847.2z M755,707l42.8-0.4l-9.9,18.2h-45.3L755,707z M779.6,738.2L767,760.1h-50.2l15.3-21.9L779.6,738.2L779.6,738.2z
		 M759.2,773l-12.9,23.7h-55.5l17.5-23.7H759.2z M682.6,707l39.5,0.8l-11.6,17h-47.2L682.6,707z M652.4,738.2h46.5L681,760.1h-49
		L652.4,738.2z M613.2,847.9h-61.9l28.1-30.7h56.5L613.2,847.9z M596.4,796.8l24.8-23.7h50.3l-17.8,23.7H596.4z M655.2,847.9
		l20.6-30.7H1127l7.5,30.7H655.2z M1136.5,738.2h47.5l9.7,21.9h-50.2L1136.5,738.2z M1148.9,773.5h53.2l11.5,23.7h-56.7
		L1148.9,773.5z M1176.5,847.9l-11.4-29.7h58.2l14.3,29.7H1176.5z M1237.7,773.5h52.6l16.1,23.7h-56.7L1237.7,773.5z M1281.5,847.9
		l-18.1-29.7h57.8l21.4,29.7H1281.5z M1315.6,760.1h-85.4l-12.9-21.9l129.1,0.7l54,58.4h-55.9L1315.6,760.1z M1384.2,847.9
		l-22.4-29.7h58.3l25.3,29.7H1384.2z"/>
</g>
<g id="Layer_4">
	<g>
		<path d="M1326,53.2c4.1,2,8.4,3.8,12.3,6.2c15.6,9.3,22.4,23.7,22.5,41.2c0.3,42.8,0.1,85.7,0.1,128.5c0,237.8,0,475.6,0.1,713.4
			c0,22.9-9,39.8-30.5,48.9c-3.2,1.4-6.9,2-10.3,2c-200.6,0.1-401.1,0.1-601.7,0c-16.4,0-37.4-20.9-37.4-38.3
			c0-287.7,0-575.4,0-863.1c0-13.2,12.9-30.5,26.2-35.3c2.9-1.1,5.7-2.4,8.6-3.7c0.6,0,1.2,0,1.8,0c1.2,0,2.5,0,3.7,0
			c199.7,0,399.4,0,599.1,0c1.2,0,2.5,0,3.7,0C1324.8,53.2,1325.4,53.2,1326,53.2z M710.3,523.4c0,139.9,0.1,279.8-0.2,419.7
			c0,14.2,3.4,21.5,21.3,21.4c192.9-0.3,385.9-0.2,578.8-0.2c15.8,0,21.2-5.5,21.2-21.2c0-279.8,0-559.5,0-839.3
			c0-15.8-5.4-21.2-21.2-21.2c-193.2,0-386.5,0.1-579.7-0.2c-16.6,0-20.5,7.6-20.4,20.5C710.5,243,710.3,383.2,710.3,523.4z"/>
		<path class="st3" d="M721.4,53.2c-1.2,0-2.5,0-3.7,0C718.9,53.2,720.1,53.2,721.4,53.2z"/>
		<path class="st3" d="M1324.2,53.2c-1.2,0-2.5,0-3.7,0C1321.7,53.2,1322.9,53.2,1324.2,53.2z"/>
		<path d="M552.2,172.5c8.7-13,18-22,36.8-22c9.5,0,11.3,1,16.9,2c15.9,2.7,28.6,17.5,29.1,33.5c0.8,28.6,1.8,57.2,1.8,85.8
			c0.2,160.7-0.2,321.4,0.4,482.1c0.1,26.7-2.4,52.6-9.5,78.3c-5.9,21.7-11.4,43.4-17.1,65.6c-12.1,0-24.6,0-37.5,0
			c-8.1-31.9-16.3-63.8-24.3-95.8c-0.6-2.6-0.1-5.5-0.1-8.2c0-200.8,0-401.6,0.1-602.3c0-5,0.1-7.5,0.6-12.5
			C549.9,177.5,551.5,173.8,552.2,172.5z M578.2,340c-0.1,2.1-0.2,3.3-0.2,4.5c0,80.4,0,160.9,0,241.3c0,61.2,0.2,122.4-0.1,183.6
			c-0.1,17.2,0.4,34.2,5.6,50.8c2.7,8.8,4.9,17.7,7.3,26.6c3.8-5.7,5.5-11.3,6.8-16.9c3.4-15,9.4-30,9.5-45
			c0.7-145.6,0.4-291.3,0.4-436.9c0-2.6-0.3-5.3-0.4-8C597.2,340,588.1,340,578.2,340z M607.4,258.7c0-21.3,0.2-41.8-0.2-62.3
			c-0.1-4.2-0.9-13.2-3.7-15.5c-4.1-3.3-10.5-2.5-15.7-2.2c-3.4,0.1-9.2,5.5-9.3,8.7c-0.8,23.7-0.4,47.4-0.4,71.3
			C588.2,258.7,597.3,258.7,607.4,258.7z M578.2,309.8c10.2,0,19.5,0,28.7,0c0-7.4,0-14.3,0-21c-9.8,0-19.2,0-28.7,0
			C578.2,296,578.2,302.6,578.2,309.8z"/>
		<path class="st3" d="M552.2,172.5c-0.6,1.3-1.2,2.5-1.8,3.8C550.9,175,551.5,173.8,552.2,172.5z"/>
		<path d="M1316.6,127.2c0,259.5,0,518.4,0,777.8c-197,0-393.7,0-591,0c0-259,0-518.2,0-777.8C922.2,127.2,1119,127.2,1316.6,127.2z
			 M755,156.2c0,240.4,0,479.9,0,719.3c177.7,0,354.9,0,531.9,0c0-240.1,0-479.6,0-719.3C1109.4,156.2,932.5,156.2,755,156.2z"/>
		<path class="st4" d="M1006.3,933.7c0.1-7.5,6.2-13.5,13.7-13.5c7.3,0,15.7,8,15.6,14.8s-8.5,14.6-15.8,14.5
			C1011.6,949.5,1006.2,943.1,1006.3,933.7z"/>
	</g>
	<g id="Dragon_00000041280689038081853240000013561773221336400287_">
		<path class="st2" d="M1276.4,480.9c-1.4-13.4-4.9-46.4-16.3-67.8c-11.4-21.4-28.1-49.5-46.2-65.3c-18.1-15.9-37.8-31.1-55.1-37.6
			c-17.3-6.5-31.3-10.8-37.8-11.8s-9.6-1.8-1.8-2c7.7-0.2,22,1,30.7,2.4s29.3,5.5,45,14.5s38.1,22.2,49.5,35s11.4,12.8,11.4,12.8
			s-11.8-22.2-19.5-31.5s-29.7-31.3-42.3-40.5c-12.6-9.2-36.6-22.2-48.6-25.4c-12-3.3-27.7-6.9-39.3-7.1
			c-11.6-0.2-33.8,5.7-23.2-0.6c10.6-6.3,23.8-15.5,39.1-20.4c15.3-4.9,13.6-7.1,31.5-9.8c17.9-2.6,24.8-4.3,30.7-4.3
			c5.9,0,5.9,0,5.9,0s-7.3-3.5-23.4-3.5s-39.9,0.4-57,4.7s-51.9,16.3-61.5,21.2s-37.8,21.4-46.4,28.3c-8.5,6.9-17.3,12.2-30.5,26
			s-23.2,25-29.9,34.6s-13.6,21.4-13.6,21.4s6.9-21,23.4-42.3c16.5-21.4,30.2-41.7,53.5-60.6c23.3-18.9,34.8-29.1,53.9-38.9
			c19.1-9.8,39.9-19.1,44-20.6c4.1-1.4,4.1-1.4,4.1-1.4s-14.5,0-30.5,3.5c-16.1,3.5-51.1,15.3-63.3,22.2s-33.4,19.7-41.5,26.7
			c-8.1,6.9-21.8,17.9-29.7,26.7c-7.9,8.7-16.1,17.7-20.6,25.2s-8.7,14.9-8.7,14.9s0.8-6.7,1-17.1s-0.6-19.7-2.6-30.7
			s-4.3-21.2-8.9-31c0,0,5.8,24.1-9.2,62.9s-23.2,51-36,68.7s-34.8,45.5-38.5,58s-8.4,22.6-8.9,39.9c-0.4,17.3,4.7,13.2-3.1,23
			s-18.7,21-21,22.6c-2.2,1.6-5.1,5.8-6.1,8.2s-3.9,4.8-9.8-4.1s-5.5-19.3-5.5-19.3s-4.9,13.2-3.7,22c1.2,8.7,0.4,18.7,6.5,25.6
			c6.1,6.9,9.6,6.1,12.6,13.8c3.1,7.7,7.9,18.3,19.3,26.5c11.4,8.1,17.3,11.6,25.4,12.6s8.1,1,8.1,1s-11.6-7.7-12.6-12
			s-3.1-9.8-1.6-13c1.4-3.3,1.2-4.7,6.1-0.4c4.9,4.3,10,7.7,14.6,9.4c4.7,1.6,6.9,2,6.9,2s-7.3-11.2-5.7-18.3s4.3-17.7,10.8-26.2
			s19.7-25.4,26.5-29.5c6.7-4.1,20.1-14.9,29.3-18.3c9.2-3.5,9.2-3.5,9.2-3.5s-3.9,11-7.7,18.3c-3.9,7.3-3.9,7.3-3.9,7.3l18.7-9.4
			c0,0-2.4,9.4-9.2,23c-6.7,13.6-12.4,26.7-15.3,31.5c-2.9,4.9-4.5,9.8-7.5,5.3c-3.1-4.5-3.1-5.7-3.1-5.7s-1.8,2.9-2.9,9.8
			c-1,6.9,0,13.8-5.7,11.4c-5.7-2.4-9-2.2-12.8-8.5c-3.9-6.3-3.9-6.3-3.9-6.3s-2.2,12.6,0.6,21.8s6.1,18.7,17.3,28.5
			s19.9,13.6,28.7,15.7c8.7,2,16.9,3.1,16.9,3.1s-11-7.9-12.2-17.1c-1.2-9.2-1.2-17.1,3.1-22.4c4.3-5.3,14.9-15.3,23.4-14
			c8.5,1.2,9.8,0.8,13.4,2.2c3.7,1.4,6.2,2.4,6.2,2.4s-7.6-6.9-8.9-10.5c-1.4-3.6-6.4-14.6,1.8-24.7c8.2-10.1,39.5-39.6,39.5-39.6
			s16.9-15.1,19.4-21.5c2.4-6.4,6.3-15.2,5.6-23.8c-0.6-8.6-1.9-19.2,0.1-26.1s4.6-13.4,8.9-17.5s10.4-8.7,16.6-10.7
			s11.3-4.4,17.7-4.6c6.4-0.3,9.1-0.4,9.1-0.4s-9.7-2.8-16.6-3.3c-6.6-0.5-13.6-0.1-18.8,0.8c-6.1,1-21.4,7.6-25,10.3
			c-2.8,2.1-7.4,6.6-8,14.9c-0.7,8.3-0.4,13.5-4.1,23.4c-3.7,9.9-8.9,23.7-12.8,30.1c-4,6.4-7.3,10.7-7.3,10.7s11.3-16.5,13-29
			s3.2-10.5,2.6-20.9c-0.6-10.4-1.4-21.1-1.4-21.1s-6.7,2.6-13.3,2.1s-16.8-0.8-22.7-6.1s-11.6-10.4-13.3-17.9s-1.2-16.6-1.2-16.6
			s1.5,11.4,5.5,16.6s9.2,10.7,16.6,12.4c7.5,1.7,18.5,1.5,24.4,0.3s19.1-6.3,25.3-8.2c6.3-2,14.8-4.6,25-4.6s16.9,0,22.6,1.5
			c5.6,1.5,9.2,2.1,12.7,3.5s4.4,2,4.4,2s-12.1,0.6-17.2,1.4c-5.2,0.8-18.8,5.2-26.1,11c-7.3,5.8-12.3,12.1-13.7,16.5
			c-1.5,4.4-2.6,11.6-2.4,15c0.2,3.4,0.4,2.6,1.5,4c1.1,1.5,9.4,11.4,10.8,15.5s7.9,21,6.5,35.1c-1.4,14-4.9,27.3-9.2,39.5
			c-4.3,12.2-5.5,16.1-5.5,16.1s5.7-12,12.8-21.4c7.1-9.4,14-18.9,23.8-25c9.8-6.1,16.5-9.6,22-10.6s6.1-0.6,0,10.2
			s-27.9,40.3-36.8,49c-9,8.8-52.3,50.1-52.3,50.1s-21.6,20.4-29.7,33.6c-8.1,13.2-8.1,13.2-8.1,13.2s9.6-12.2,21-18.5
			s18.2-11.2,30.1-12.4s16.5-0.4,20.1,0.6c3.7,1,4.1,1.6-2.4,5.5s-30.3,18.7-38.9,23c-8.5,4.3-31.3,17.5-38.9,22.4
			c-7.5,4.9-24.6,13.8-33.6,29.1s-9,15.3-9,15.3s15.9-14.3,21.6-16.3c5.7-2,15.3-5.5,21.4-4.3s10.8,2,5.3,4.9s-25.8,15.9-36.2,24
			s-29,24.7-35.5,34.8c-4,6.3-18,29.5-14.8,52.9c3.3,23.4,6.3,27.5,6.3,27.5s-1.2-17.7,1.4-27.7c2.6-10,15.9-40.9,24-47.6
			c8.1-6.7,19.1-19.7,32-27.3c12.8-7.5,90.2-51.3,90.2-51.3l30.1-18.7c0,0-12.6,1.6-21,1.6c-8.3,0-17.3,0-17.3,0l20.8-14.9
			c0,0,1-1.6,7.1-2.4c6.1-0.8,38.1-9.8,46-14.9c7.9-5.1,20.4-12.8,20.4-12.8s-11.4,17.3-15.7,22.6c-4.3,5.3-15.7,20.8-33.8,35.6
			c-18.1,14.9-53.5,41.1-84.9,59.2c-31.3,18.1-52.5,35-63.1,47.2s-19.3,26.7-20.4,30.7c-1,4.1-1.2,6.5-1.2,6.5s7.9-14,13.2-19.3
			s25.4-23.2,47.8-32.8c22.4-9.6,18.1-9.2,45.2-20.1c27.1-11,72.6-28.9,97.5-47.6c24.8-18.7,44.8-34.4,57.6-51.1
			c12.8-16.7,12.8-16.7,12.8-16.7s-1,7.3-7.9,25.4c-6.9,18.1-21,49.5-36.6,67.6c-15.7,18.1-35.6,39.5-35.6,39.5s21.8-12.4,29.9-19.9
			s41.7-38.9,54.7-59.8c13-21,32.8-52.9,38.3-73.3c5.5-20.4,14.6-48.2,15.7-65.9c1-17.7,0-33.8,0-33.8s6.1,17.1,6.1,34.8
			s0.8,30.5-2,44.8c-2.9,14.3-7.3,32.4-10.4,39.3c-3.1,6.9-3.1,6.9-3.1,6.9s8.4-10.2,15.6-24.4s23.1-48,24.3-72
			c1.2-24,1-67.6-7.1-88.5c-8.1-21-14.3-36.4-17.9-42.3c-3.7-5.9-6.9-11.4-6.9-11.4s9,3.9,19.3,18.3c10.4,14.5,19.7,25.2,26.7,43.4
			c6.9,18.1,11,27.5,12.4,35.2s1.4,7.7,1.4,7.7S1277.8,494.4,1276.4,480.9z M812.5,530.7c-1.2,1.7-6.4,4.9-9.5,5.3
			c-3.1,0.5-4.4,2.7-5.5,7.6s-1.4,3.5-2.4-1.2c-1.1-4.7,1.1-7.8,2.5-9.2c3.5-3.5,7-4.4,7-4.4c1.8-0.5,5.6-2.4,8.7-3.5
			C816.3,524.3,813.7,529.1,812.5,530.7z M827.9,440.2c2-11,7.5-19.4,16-34s31.9-38.8,38.3-45.8c6.4-7,33.1-28.7,33.1-28.7
			c0.3,1.7-4.3,5.2-9.8,9.6s-7.9,7.9-22.7,22.6c-14.8,14.6-24,30.8-33,44.6c-9,13.7-13.1,26.7-15,33.4c-1.8,6.7-1.8,17.7-1.5,21.4
			c0.3,3.7,6.7,10.2,6.7,10.2s0,0-3.5,0s-3.8-0.2-8.7-3.8C823,466,825.9,451.2,827.9,440.2z M851.5,472.4l-16.9,13.2l-11.4,9.4
			l5.3-5.9c0,0,16.1-13.8,21.2-19.5c5.1-5.7,4.7-10.4,5.1-18.7c0.4-8.3,6.7-16.7,11.8-19.5s12.8-8.7,16.9-12.4
			c4.1-3.7,13.2-22.2,13.2-22.2c-0.6,7.1-2.2,10-4.5,14.9c-2.2,4.9-4.1,8.7-4.1,14.5c0,5.7-1.6,12.8-4.1,19.8
			c-2.4,7-9,12.7-12.8,14.1c-3.9,1.4-10.2,3.3-11.3,5.1C858.8,466.9,851.5,472.4,851.5,472.4z M912.1,445.1
			c-1.6,5.7-6.5,13.4-10.8,17.5s-16.3,10.8-22.6,12.8s-13.1,4.7-16.7,7.7c-3.6,3-2,0-2,0s7.1-3.9,12.8-6.9
			c5.7-3.1,17.5-10.2,25-17.7s10.6-22,10.6-22s0,0,1.8-11s2.2-16.7,2.2-16.7s0,0,2.4,9C917.4,426.8,913.7,439.4,912.1,445.1z
			 M947.7,496.8c3.5-6.3,8.3-26.7,8.3-26.7c3.5-20.8-4.3-33.4-11.4-38.7c-7.1-5.3,4.1-0.8,11.6,4.3s8.1,18.5,8.1,29.3
			s-7.5,24.4-16.1,37.8c-8.5,13.4-23.2,38.7-26.7,44.6c-3.5,5.9-19.3,42.7-19.3,42.7s9-24.6,12-31.1c3.1-6.5,11.2-22,14.6-27.9
			S944.3,503.1,947.7,496.8z M973.4,343.8c-4.1,6.1-6.7,21.8-4.5,28.7c2.2,6.9,5.7,6.9,10.2,4.3s4.7-12.6,4.7-12.6s0.4,3.5,0.6,9.8
			c0.2,6.3-5.3,8.7-11,9.2c-5.7,0.4-6.9-4.1-11-12.6s1.4-19.9,5.1-29.1c3.7-9.2,18.3-23,18.3-23c8.5-9.4,29.1-21.4,37.4-26
			c8.3-4.7,21.6-9.4,21.6-9.4s-13,6.5-21.6,11.2c-8.5,4.7-24.2,18.5-31.5,25.4C984.3,326.5,977.4,337.7,973.4,343.8z M1049.7,637.7
			c-8.9,3.4-1.8-0.6,3.4-6.1s6.7-7.9,13.4-14.3c6.7-6.4,23.8-33,23.8-33c5.8-8.9,10.1-9.2,18-16.2s18.9-16.8,27.5-26.6
			s18.6-27.8,18.6-27.8s-0.3,3.1-1.2,11.3s-4.3,22.9-9.2,36.6c-4.9,13.7-19.5,27.8-36.9,43C1089.7,620,1058.5,634.4,1049.7,637.7z
			 M1124.5,480.5c9.8-15.9,14.3-54.6,14.3-54.6c11.3,18.9,11.6,35.4,12.5,43s-8.2,30.5-18.3,48.8c-10.1,18.3-29.6,38.8-29.6,38.8
			s4.7-11.7,7.3-22.9c2.8-11.8,5.5-22.6,6.7-32.4S1114.7,496.4,1124.5,480.5z M1151.6,588c-12.8,24.7-42.7,53.7-42.7,53.7
			s20.1-25,33.3-47c13.1-22,18.3-41.2,24.7-70.5c6.4-29.3-5.5-76.9-15.6-99.2c-10.1-22.3-41.5-48.2-48.8-54s-29.6-13.4-29.6-13.4
			s16.5,11.3,26.6,20.4s18,28.4,20.8,47.6c2.7,19.2-4,35.7-4,35.7s-0.3-3.1-1.5-11.6s-6.1-22-13.4-37.8c-7.3-15.9-22.3-29-37.2-40.9
			c-15-11.9-36.9-18.9-44.9-20.8c-7.9-1.8-26-1.8-26-1.8l11.3-15.6c6.1-6.7,3.3-6.4,20.7-7s39.1,2.7,75.4,15.6
			c36.3,12.8,52.2,40.6,69.3,68.1c17.1,27.5,14.3,57.4,14.6,86.7C1184.9,525.4,1164.4,563.2,1151.6,588z"/>
	</g>
</g>
</svg>
