<?xml version="1.0" encoding="utf-8"?>
<!-- Generator: $$$/GeneralStr/196=Adobe Illustrator 27.6.0, SVG Export Plug-In . SVG Version: 6.00 Build 0)  -->
<svg version="1.1" xmlns="http://www.w3.org/2000/svg" xmlns:xlink="http://www.w3.org/1999/xlink" x="0px" y="0px"
	 viewBox="0 0 1920 1080" style="enable-background:new 0 0 1920 1080;" xml:space="preserve">
<g id="Image">
</g>
<g id="Dragon">
	<path d="M1304.74,487.84c-1.81-17.03-6.19-58.84-20.65-85.94c-14.45-27.1-35.61-62.71-58.58-82.84s-48-39.48-69.94-47.74
		c-21.94-8.26-39.74-13.68-48-14.97c-8.26-1.29-12.13-2.32-2.32-2.58s27.87,1.29,38.97,3.1c11.1,1.81,37.16,6.97,57.03,18.32
		s48.26,28.13,62.71,44.39s14.45,16.26,14.45,16.26s-14.97-28.13-24.77-40s-37.68-39.74-53.68-51.35
		c-16-11.61-46.45-28.13-61.68-32.26s-35.1-8.77-49.81-9.03s-42.84,7.23-29.42-0.77c13.42-8,30.19-19.61,49.55-25.81
		c19.35-6.19,17.29-9.03,40-12.39c22.71-3.35,31.48-5.42,38.97-5.42c7.48,0,7.48,0,7.48,0s-9.29-4.39-29.68-4.39
		s-50.58,0.52-72.26,5.94c-21.68,5.42-65.81,20.65-77.94,26.84c-12.13,6.19-48,27.1-58.84,35.87
		c-10.84,8.77-21.94,15.48-38.71,33.03c-16.77,17.55-29.42,31.74-37.94,43.87c-8.52,12.13-17.29,27.1-17.29,27.1
		s8.77-26.58,29.68-53.68c20.9-27.1,38.26-52.9,67.9-76.9s44.1-36.9,68.35-49.29s50.58-24.26,55.74-26.06s5.16-1.81,5.16-1.81
		s-18.32,0-38.71,4.39c-20.39,4.39-64.77,19.35-80.26,28.13c-15.48,8.77-42.32,25.03-52.65,33.81s-27.61,22.71-37.68,33.81
		c-10.06,11.1-20.39,22.45-26.06,32c-5.68,9.55-11.1,18.84-11.1,18.84s1.03-8.52,1.29-21.68c0.26-13.16-0.77-25.03-3.35-38.97
		s-5.42-26.84-11.23-39.35c0,0,7.35,30.58-11.61,79.74c-18.97,49.16-29.42,64.65-45.68,87.1c-16.26,22.45-44.13,57.68-48.77,73.55
		c-4.65,15.87-10.71,28.65-11.23,50.58c-0.52,21.94,5.94,16.77-3.87,29.16c-9.81,12.39-23.74,26.58-26.58,28.65
		c-2.84,2.06-6.45,7.42-7.74,10.42c-1.29,3-4.9,6.1-12.39-5.26c-7.48-11.35-6.97-24.52-6.97-24.52s-6.19,16.77-4.65,27.87
		c1.55,11.1,0.52,23.74,8.26,32.52c7.74,8.77,12.13,7.74,16,17.55s10.06,23.23,24.52,33.55s21.94,14.71,32.26,16
		c10.32,1.29,10.32,1.29,10.32,1.29s-14.71-9.81-16-15.23c-1.29-5.42-3.87-12.39-2.06-16.52s1.55-5.94,7.74-0.52
		c6.19,5.42,12.65,9.81,18.58,11.87s8.77,2.58,8.77,2.58s-9.29-14.19-7.23-23.23c2.06-9.03,5.42-22.45,13.68-33.29
		c8.26-10.84,25.03-32.26,33.55-37.42c8.52-5.16,25.55-18.84,37.16-23.23s11.61-4.39,11.61-4.39s-4.9,13.94-9.81,23.23
		c-4.9,9.29-4.9,9.29-4.9,9.29l23.74-11.87c0,0-3.1,11.87-11.61,29.16c-8.52,17.29-15.74,33.81-19.35,40s-5.68,12.39-9.55,6.71
		s-3.87-7.23-3.87-7.23s-2.32,3.61-3.61,12.39c-1.29,8.77,0,17.55-7.23,14.45c-7.23-3.1-11.35-2.84-16.26-10.84c-4.9-8-4.9-8-4.9-8
		s-2.84,16,0.77,27.61s7.74,23.74,21.94,36.13c14.19,12.39,25.29,17.29,36.39,19.87c11.1,2.58,21.42,3.87,21.42,3.87
		s-13.94-10.06-15.48-21.68c-1.55-11.61-1.55-21.68,3.87-28.39c5.42-6.71,18.84-19.35,29.68-17.81c10.84,1.55,12.39,1.03,17.03,2.84
		c4.65,1.81,7.81,3.1,7.81,3.1s-9.58-8.71-11.32-13.26s-8.13-18.58,2.32-31.35c10.45-12.77,50.13-50.23,50.13-50.23
		s21.48-19.16,24.58-27.29c3.1-8.13,7.94-19.26,7.16-30.19s-2.45-24.39,0.08-33.1c2.53-8.71,5.89-16.97,11.3-22.13
		c5.42-5.16,13.23-11.1,21.1-13.61c7.87-2.52,14.32-5.55,22.39-5.87c8.06-0.32,11.48-0.52,11.48-0.52s-12.28-3.52-21.1-4.19
		c-8.39-0.65-17.2-0.16-23.87,0.97c-7.79,1.32-27.16,9.61-31.68,13.03c-3.51,2.66-9.35,8.39-10.19,18.9
		c-0.84,10.52-0.52,17.1-5.16,29.68c-4.65,12.58-11.23,30-16.26,38.13c-5.03,8.13-9.29,13.55-9.29,13.55s14.32-20.9,16.45-36.77
		s4.06-13.35,3.29-26.52c-0.77-13.16-1.74-26.71-1.74-26.71s-8.52,3.29-16.84,2.71c-8.32-0.58-21.29-0.97-28.84-7.74
		s-14.71-13.16-16.84-22.65c-2.13-9.48-1.55-21.1-1.55-21.1s1.94,14.52,6.97,21.1c5.03,6.58,11.61,13.55,21.1,15.68
		c9.48,2.13,23.42,1.94,30.97,0.39c7.55-1.55,24.19-7.94,32.13-10.45c7.94-2.52,18.77-5.81,31.74-5.81c12.97,0,21.48,0,28.65,1.94
		c7.16,1.94,11.61,2.71,16.06,4.45s5.61,2.52,5.61,2.52s-15.29,0.77-21.87,1.74c-6.58,0.97-23.81,6.58-33.1,13.94
		s-15.58,15.39-17.42,20.9c-1.84,5.52-3.29,14.71-3,18.97c0.29,4.26,0.49,3.29,1.84,5.13c1.35,1.84,11.9,14.42,13.74,19.65
		c1.84,5.23,10,26.65,8.19,44.45s-6.19,34.58-11.61,50.06c-5.42,15.48-6.97,20.39-6.97,20.39s7.23-15.23,16.26-27.1
		c9.03-11.87,17.81-24,30.19-31.74c12.39-7.74,20.9-12.13,27.87-13.42c6.97-1.29,7.74-0.77,0,12.9s-35.35,51.1-46.71,62.19
		c-11.35,11.1-66.32,63.48-66.32,63.48s-27.35,25.81-37.68,42.58s-10.32,16.77-10.32,16.77s12.13-15.48,26.58-23.48
		c14.45-8,23.03-14.19,38.23-15.74s20.87-0.52,25.52,0.77c4.65,1.29,5.16,2.06-3.1,6.97c-8.26,4.9-38.45,23.74-49.29,29.16
		c-10.84,5.42-39.74,22.19-49.29,28.39c-9.55,6.19-31.23,17.55-42.58,36.9s-11.35,19.35-11.35,19.35s20.13-18.06,27.35-20.65
		c7.23-2.58,19.35-6.97,27.1-5.42c7.74,1.55,13.68,2.58,6.71,6.19c-6.97,3.61-32.77,20.13-45.94,30.45s-36.83,31.36-45.03,44.13
		c-5.1,7.94-22.84,37.42-18.71,67.1c4.13,29.68,8,34.84,8,34.84s-1.55-22.45,1.81-35.1c3.35-12.65,20.13-51.87,30.45-60.39
		s24.26-25.03,40.52-34.58c16.26-9.55,114.32-65.03,114.32-65.03l38.19-23.74c0,0-16,2.06-26.58,2.06c-10.58,0-21.94,0-21.94,0
		l26.32-18.84c0,0,1.29-2.06,9.03-3.1c7.74-1.03,48.26-12.39,58.32-18.84c10.06-6.45,25.81-16.26,25.81-16.26
		s-14.45,21.94-19.87,28.65c-5.42,6.71-19.87,26.32-42.84,45.16c-22.97,18.84-67.87,52.13-107.61,75.1
		c-39.74,22.97-66.58,44.39-80,59.87c-13.42,15.48-24.52,33.81-25.81,38.97c-1.29,5.16-1.55,8.26-1.55,8.26s10.06-17.81,16.77-24.52
		c6.71-6.71,32.26-29.42,60.65-41.55s22.97-11.61,57.29-25.55s92.13-36.65,123.61-60.39s56.77-43.61,73.03-64.77
		c16.26-21.16,16.26-21.16,16.26-21.16s-1.29,9.29-10.06,32.26c-8.77,22.97-26.58,62.71-46.45,85.68
		c-19.87,22.97-45.16,50.06-45.16,50.06s27.61-15.74,37.94-25.29c10.32-9.55,52.9-49.29,69.42-75.87
		c16.52-26.58,41.55-67.1,48.52-92.9s18.58-61.16,19.87-83.61c1.29-22.45,0-42.84,0-42.84s7.74,21.68,7.74,44.13
		s1.03,38.71-2.58,56.77c-3.61,18.06-9.29,41.03-13.16,49.81c-3.87,8.77-3.87,8.77-3.87,8.77s10.6-12.9,19.75-30.97
		c9.15-18.06,29.28-60.9,30.83-91.35c1.55-30.45,1.29-85.68-9.03-112.26c-10.32-26.58-18.06-46.19-22.71-53.68
		c-4.65-7.48-8.77-14.45-8.77-14.45s11.35,4.9,24.52,23.23s25.03,32,33.81,54.97c8.77,22.97,13.94,34.84,15.74,44.65
		c1.81,9.81,1.81,9.81,1.81,9.81S1306.55,504.87,1304.74,487.84z M716.48,551c-1.55,2.13-8.13,6.19-12,6.77s-5.61,3.48-6.97,9.68
		c-1.35,6.19-1.74,4.45-3.1-1.55c-1.35-6,1.35-9.92,3.15-11.71c4.41-4.41,8.85-5.52,8.85-5.52c2.32-0.6,7.16-3.1,11.03-4.45
		C721.32,542.87,718.03,548.87,716.48,551z M736.03,436.23c2.52-13.94,9.48-24.58,20.32-43.16c10.84-18.58,40.45-49.16,48.58-58.06
		c8.13-8.9,42-36.39,42-36.39c0.39,2.13-5.42,6.58-12.39,12.19c-6.97,5.61-10.06,10.06-28.84,28.65
		c-18.77,18.58-30.39,39.1-41.81,56.52c-11.42,17.42-16.65,33.87-18.97,42.39c-2.32,8.52-2.32,22.45-1.94,27.1
		s8.52,12.97,8.52,12.97s0,0-4.45,0s-4.84-0.19-11.03-4.84C729.84,468.94,733.52,450.16,736.03,436.23z M765.9,477l-21.42,16.77
		l-14.45,11.87l6.71-7.48c0,0,20.39-17.55,26.84-24.77c6.45-7.23,5.94-13.16,6.45-23.74c0.52-10.58,8.52-21.16,14.97-24.77
		c6.45-3.61,16.26-11.1,21.42-15.74c5.16-4.65,16.77-28.13,16.77-28.13c-0.77,9.03-2.84,12.65-5.68,18.84
		c-2.84,6.19-5.16,11.1-5.16,18.32c0,7.23-2.06,16.26-5.16,25.16c-3.1,8.9-11.35,16.13-16.26,17.94s-12.9,4.13-14.32,6.45
		S765.9,477,765.9,477z M842.81,442.42c-2.06,7.23-8.26,17.03-13.68,22.19c-5.42,5.16-20.65,13.68-28.65,16.26
		c-8,2.58-16.66,5.97-21.16,9.81c-4.5,3.84-2.58,0-2.58,0s9.03-4.9,16.26-8.77s22.19-12.9,31.74-22.45s13.42-27.87,13.42-27.87
		s0,0,2.32-13.94s2.84-21.16,2.84-21.16s0,0,3.1,11.35C849.52,419.19,844.87,435.19,842.81,442.42z M887.97,507.97
		c4.39-8,10.58-33.81,10.58-33.81c4.39-26.32-5.42-42.32-14.45-49.03c-9.03-6.71,5.16-1.03,14.71,5.42
		c9.55,6.45,10.32,23.48,10.32,37.16s-9.55,30.97-20.39,48c-10.84,17.03-29.42,49.03-33.81,56.52
		c-4.39,7.48-24.52,54.19-24.52,54.19s11.35-31.23,15.23-39.48s14.19-27.87,18.58-35.35C868.61,544.1,883.58,515.97,887.97,507.97z
		 M920.48,313.9c-5.17,7.74-8.51,27.61-5.67,36.39c2.84,8.77,7.23,8.77,12.9,5.42c5.68-3.35,5.94-16,5.94-16s0.52,4.39,0.77,12.39
		s-6.71,11.1-13.94,11.61c-7.23,0.52-8.77-5.16-13.93-16c-5.16-10.84,1.81-25.29,6.45-36.9c4.65-11.61,23.23-29.16,23.23-29.16
		c10.84-11.87,36.9-27.1,47.48-33.03c10.58-5.94,27.35-11.87,27.35-11.87s-16.52,8.26-27.35,14.19c-10.84,5.94-30.71,23.48-40,32.26
		C934.42,291.97,925.65,306.16,920.48,313.9z M1017.26,686.68c-11.23,4.26-2.32-0.77,4.26-7.74c6.58-6.97,8.52-10.06,17.03-18.19
		s30.19-41.81,30.19-41.81c7.35-11.23,12.77-11.61,22.84-20.52c10.06-8.9,24-21.29,34.84-33.68c10.84-12.39,23.61-35.26,23.61-35.26
		s-0.39,3.9-1.55,14.36c-1.16,10.45-5.42,29.03-11.61,46.45c-6.19,17.42-24.77,35.23-46.84,54.58
		C1067.97,664.23,1028.48,682.42,1017.26,686.68z M1112.1,487.32c12.39-20.13,18.19-69.29,18.19-69.29
		c14.32,24,14.71,44.9,15.87,54.58c1.16,9.68-10.45,38.71-23.23,61.94c-12.77,23.23-37.55,49.16-37.55,49.16s5.94-14.84,9.29-29.03
		c3.52-14.9,6.97-28.65,8.52-41.03C1104.74,501.26,1099.71,507.45,1112.1,487.32z M1146.55,623.58
		c-16.26,31.35-54.19,68.13-54.19,68.13s25.55-31.74,42.19-59.61c16.65-27.87,23.23-52.26,31.35-89.42
		c8.13-37.16-6.97-97.55-19.74-125.81c-12.77-28.26-52.65-61.16-61.94-68.52c-9.29-7.35-37.55-17.03-37.55-17.03
		s20.9,14.32,33.68,25.94c12.77,11.61,22.84,36,26.32,60.39s-5.03,45.29-5.03,45.29s-0.39-3.87-1.94-14.71
		c-1.55-10.84-7.74-27.87-17.03-48c-9.29-20.13-28.26-36.77-47.23-51.87c-18.97-15.1-46.84-24-56.9-26.32
		c-10.06-2.32-32.91-2.32-32.91-2.32L960,299.97c7.77-8.52,4.23-8.13,26.29-8.9c22.06-0.77,49.55,3.48,95.61,19.74
		s66.19,51.48,87.87,86.32c21.68,34.84,18.19,72.77,18.58,109.94C1188.74,544.23,1162.81,592.23,1146.55,623.58z"/>
</g>
</svg>
